# xmcd
#
# Track frame offsets: 
#        182
#        15687
#        33677
#        52845
#        61740
#        76620
#        97185
#        143232
#        174125
#        215657
#        250307
#
# Disc length: 4127 seconds
#
# Revision: 3
# Processed by: cddbd v1.5.2PL0 Copyright (c) Steve Scherf et al.
# Submitted via: ExactAudioCopy v1.0b4
#
DISCID=8c101d0b
DTITLE=Placido Domingo / Golden Voices of the 3 Tenors, CD 3
DYEAR=1994
DGENRE=Opera
TTITLE0=Mai Reggendo All' Aspro Assalto -  Il Trovatore
TTITLE1=L'Usato Messo Ruiz Invia!...Perigiarti Ancor- Perigiarti Ancor
TTITLE1= - Il Trovatore
TTITLE2=E Deggio...E Posso Crederio- E Posso Crederio - Il Trovatore
TTITLE3=Quale D'Armi Gragor - Il Travatore
TTITLE4=Ah Si, Ben Mio - Il Trovatore
TTITLE5=Je Suis Seul!- Manon
TTITLE6=Ah! Des Grieux! O Manon...Le Ciel Liu-Même...N'est Ce-plus Ma 
TTITLE6=Main- Manon
TTITLE7=Quel Regards! Quelle Effronterie! Pari-Moi De Ma Mort!- Carmen
TTITLE8=Dragons D'Alcala...La Fleur Que Tu M'avais Jetée- Carmen
TTITLE9=Merce Diletti Amici...Dell' Esilio Ne Dolore- Ernani
TTITLE10=La Fleur Que Tue M'avais Jetée...C'est Toi? C'est Moi! - Carm
TTITLE10=en
EXTD=
EXTT0=
EXTT1=
EXTT2=
EXTT3=
EXTT4=
EXTT5=
EXTT6=
EXTT7=
EXTT8=
EXTT9=
EXTT10=
PLAYORDER=
.
